<?xml version="1.0" standalone="no"?>
<!DOCTYPE svg PUBLIC "-//W3C//DTD SVG 20010904//EN"
 "http://www.w3.org/TR/2001/REC-SVG-20010904/DTD/svg10.dtd">
<svg version="1.0" xmlns="http://www.w3.org/2000/svg"
 width="4500.000000pt" height="4500.000000pt" viewBox="0 0 4500.000000 4500.000000"
 preserveAspectRatio="xMidYMid meet">
<metadata>
Created by potrace 1.16, written by Peter Selinger 2001-2019
</metadata>
<g transform="translate(0.000000,4500.000000) scale(0.100000,-0.100000)"
fill="#000000" stroke="none">
<path d="M3540 26764 c-346 -24 -610 -77 -856 -173 -567 -221 -994 -648 -1177
-1177 -77 -220 -110 -436 -110 -709 0 -141 5 -208 22 -310 54 -311 193 -618
391 -860 231 -282 649 -591 1260 -930 96 -53 238 -139 315 -190 363 -242 491
-391 562 -655 28 -102 25 -385 -5 -503 -102 -407 -422 -680 -839 -716 -342
-30 -646 82 -821 302 -149 187 -218 419 -210 712 l3 145 -699 0 -699 0 6 -227
c10 -374 49 -629 137 -896 243 -735 809 -1191 1637 -1317 396 -60 823 -51
1187 26 862 182 1546 829 1741 1649 49 204 60 312 60 590 -1 294 -14 412 -70
630 -85 330 -225 566 -490 829 -203 201 -427 365 -890 649 -442 271 -651 424
-845 617 -176 175 -266 322 -292 477 -21 120 24 323 99 453 47 81 207 243 286
289 122 72 276 111 433 111 223 0 401 -73 537 -220 137 -148 207 -352 207
-602 l0 -98 704 0 704 0 8 78 c9 104 -2 373 -21 502 -40 265 -122 489 -253
690 -298 460 -796 739 -1452 814 -134 16 -465 27 -570 20z"/>
<path d="M10107 26759 c-612 -33 -1183 -187 -1694 -454 -635 -333 -1177 -845
-1532 -1449 -129 -219 -281 -560 -361 -811 -85 -267 -160 -634 -196 -955 -21
-197 -30 -715 -15 -906 64 -813 321 -1441 810 -1983 402 -445 1013 -783 1646
-910 508 -101 1089 -107 1630 -15 688 116 1325 400 1842 822 590 482 977 1044
1227 1781 239 702 308 1566 185 2301 -129 773 -507 1438 -1077 1895 -633 509
-1463 739 -2465 684z m483 -1369 c550 -70 1002 -326 1294 -733 258 -362 376
-770 376 -1313 0 -924 -322 -1694 -925 -2212 -435 -373 -977 -563 -1605 -562
-574 1 -1033 171 -1388 514 -313 302 -494 663 -567 1131 -23 145 -31 541 -15
729 72 856 424 1524 1061 2013 336 259 759 407 1274 447 83 6 404 -3 495 -14z"/>
<path d="M34552 26759 c-499 -34 -921 -193 -1235 -466 -263 -229 -494 -607
-632 -1036 -35 -105 -105 -366 -105 -387 0 -6 241 -10 645 -10 606 0 646 1
652 18 73 211 153 358 258 470 153 165 335 242 570 242 210 0 368 -60 495
-189 83 -84 126 -156 162 -271 20 -66 23 -95 23 -235 0 -123 -4 -176 -19 -230
-83 -319 -357 -546 -748 -620 -106 -20 -334 -36 -477 -32 l-114 2 -49 -260
c-27 -143 -78 -415 -113 -605 -36 -190 -65 -353 -65 -363 0 -14 11 -17 73 -17
108 0 296 -18 434 -41 571 -94 882 -380 953 -874 15 -105 12 -334 -6 -453 -38
-256 -133 -450 -305 -624 -162 -162 -363 -262 -614 -303 -117 -19 -358 -19
-468 0 -333 58 -569 261 -676 581 -41 122 -60 242 -68 422 l-6 152 -602 0
c-331 0 -629 -3 -663 -6 l-60 -7 -9 -106 c-4 -58 -7 -174 -6 -258 6 -485 143
-900 408 -1238 72 -92 242 -260 330 -327 433 -328 994 -485 1660 -465 744 23
1353 272 1835 749 353 351 556 752 626 1234 23 161 23 496 0 649 -103 671
-484 1147 -1154 1440 l-73 32 63 13 c101 19 322 96 437 150 303 145 559 392
700 675 227 456 230 1107 7 1580 -162 343 -465 645 -811 809 -354 168 -775
237 -1253 205z"/>
<path d="M15495 26608 c-2 -7 -81 -407 -174 -888 -93 -481 -276 -1419 -405
-2085 -129 -665 -316 -1626 -415 -2135 -99 -509 -213 -1098 -255 -1310 -115
-592 -156 -806 -156 -819 0 -8 495 -11 1900 -11 1045 0 1900 2 1900 4 0 2 54
278 120 612 66 335 120 617 120 627 0 16 -63 17 -1190 17 l-1190 0 5 23 c5 22
116 585 580 2957 454 2321 585 2995 585 3008 0 9 -149 12 -710 12 -560 0 -712
-3 -715 -12z"/>
<path d="M20007 25603 c-266 -1371 -474 -2441 -872 -4489 -184 -947 -335
-1729 -335 -1738 0 -15 58 -16 713 -16 l712 0 644 3318 c747 3841 761 3913
761 3930 0 9 -149 12 -713 12 l-712 0 -198 -1017z"/>
<path d="M22693 26198 c-178 -922 -1302 -6765 -1308 -6800 l-7 -38 1343 0
c1413 0 1725 7 2021 40 817 93 1500 365 2083 828 159 126 457 425 584 585 580
733 868 1682 837 2767 -23 848 -235 1478 -671 1999 -88 105 -262 275 -370 361
-381 303 -897 521 -1455 614 -360 60 -316 59 -1700 63 l-1276 4 -81 -423z
m2342 -767 c482 -75 842 -236 1132 -506 321 -299 504 -686 575 -1215 19 -143
16 -612 -5 -773 -71 -528 -254 -970 -563 -1357 -88 -109 -305 -326 -414 -414
-287 -230 -634 -409 -993 -512 -364 -105 -658 -133 -1365 -134 l-374 0 6 28
c11 51 745 3797 851 4342 58 300 108 551 110 558 4 12 84 13 453 9 395 -4 463
-7 587 -26z"/>
<path d="M38739 26618 c-9 -26 -1395 -7245 -1392 -7250 6 -11 2656 -9 2933 2
519 21 941 93 1353 230 944 315 1712 977 2146 1850 225 454 347 893 411 1485
18 159 24 698 11 875 -52 697 -257 1266 -619 1720 -94 118 -289 314 -402 404
-269 213 -583 378 -943 495 -242 78 -479 126 -847 172 -67 8 -471 13 -1372 16
-703 2 -1278 3 -1279 1z m2256 -1187 c292 -45 515 -114 735 -227 158 -82 287
-173 413 -294 304 -291 477 -646 554 -1140 26 -165 26 -692 0 -865 -68 -451
-195 -794 -422 -1135 -108 -163 -212 -286 -372 -441 -448 -433 -994 -688
-1658 -774 -186 -24 -516 -36 -901 -33 l-350 3 476 2430 c262 1337 480 2447
484 2468 l7 39 447 -5 c395 -4 463 -7 587 -26z"/>
</g>
</svg>
